<svg xmlns="http://www.w3.org/2000/svg" version="1.1" xmlns:xlink="http://www.w3.org/1999/xlink" xmlns:svgjs="http://svgjs.dev/svgjs" viewBox="0 0 13.269305545143292 3.058181376975841"><g transform="matrix(1,0,0,1,0.5019594081983856,0.5497594384879206)"><g><path d=" M 0.0555 0.8025 Q 0.0585 0.867 0.08925 0.9195000000000001 Q 0.12 0.9720000000000001 0.17325000000000002 1.00875 Q 0.2265 1.0455 0.2985 1.06575 Q 0.3705 1.086 0.456 1.086 Q 0.543 1.086 0.61275 1.0650000000000002 Q 0.6825 1.044 0.732 1.0050000000000001 Q 0.7815 0.9660000000000001 0.8085 0.9105000000000001 Q 0.8355 0.8550000000000001 0.8355 0.7875000000000001 Q 0.8355 0.6945000000000001 0.789 0.6352500000000001 Q 0.7425 0.5760000000000001 0.67275 0.53625 Q 0.603 0.49650000000000005 0.52125 0.46950000000000003 Q 0.4395 0.4425 0.36975 0.4125000000000001 Q 0.3 0.38250000000000006 0.2535 0.3435 Q 0.20700000000000002 0.3045 0.20700000000000002 0.24 Q 0.20700000000000002 0.20400000000000007 0.22275 0.1725 Q 0.23850000000000002 0.14100000000000001 0.26925 0.11775000000000002 Q 0.3 0.09450000000000003 0.34500000000000003 0.08025000000000004 Q 0.39 0.06600000000000006 0.4485 0.06600000000000006 Q 0.546 0.06600000000000006 0.61425 0.10725000000000007 Q 0.6825 0.14850000000000008 0.6945 0.237 L 0.7965 0.237 Q 0.7875 0.1815 0.756 0.1372500000000001 Q 0.7245 0.09300000000000008 0.6765 0.06225000000000014 Q 0.6285000000000001 0.031500000000000083 0.56775 0.01574999999999993 Q 0.507 0 0.441 0 Q 0.372 0 0.30975 0.018000000000000016 Q 0.2475 0.03600000000000003 0.20025 0.07050000000000001 Q 0.153 0.1050000000000001 0.12525 0.15750000000000008 Q 0.0975 0.21000000000000008 0.0975 0.2775000000000001 Q 0.0975 0.366 0.14250000000000002 0.42000000000000004 Q 0.1875 0.4740000000000001 0.25575000000000003 0.51 Q 0.324 0.546 0.4035 0.5715000000000001 Q 0.483 0.597 0.55125 0.6292500000000001 Q 0.6195 0.6615 0.6645 0.7080000000000001 Q 0.7095 0.7545000000000001 0.7095 0.8325 Q 0.7095 0.93 0.63825 0.9750000000000001 Q 0.5670000000000001 1.02 0.4485 1.02 Q 0.354 1.02 0.297 0.9952500000000001 Q 0.24 0.9705 0.21 0.936 Q 0.18 0.9015000000000001 0.1695 0.86475 Q 0.159 0.8280000000000001 0.1575 0.8025 L 0.0555 0.8025 M 1.1325 0.018000000000000016 L 1.1325 1.068 L 1.2690000000000001 1.068 L 1.2690000000000001 0.6045 L 1.335 0.6045 Q 1.377 0.6045 1.40475 0.6120000000000001 Q 1.4325 0.6195 1.455 0.6375000000000001 Q 1.4775 0.6555 1.4969999999999999 0.684 Q 1.5165000000000002 0.7125000000000001 1.5434999999999999 0.7545000000000001 L 1.662 0.93 Q 1.6844999999999999 0.9645 1.70625 0.9930000000000001 Q 1.728 1.0215 1.7535 1.04175 Q 1.779 1.062 1.81125 1.074 Q 1.8435000000000001 1.086 1.8885 1.086 Q 1.9215 1.086 1.9425 1.083 Q 1.9635000000000002 1.08 1.9845000000000002 1.068 L 1.9845000000000002 1.0125 Q 1.9769999999999999 1.014 1.9695 1.01475 Q 1.9620000000000002 1.0155 1.9545 1.0155 Q 1.923 1.0155 1.899 1.0065 Q 1.875 0.9975 1.854 0.9802500000000001 Q 1.8330000000000002 0.9630000000000001 1.8135 0.93825 Q 1.794 0.9135000000000001 1.7730000000000001 0.8820000000000001 Q 1.71 0.7905 1.6755 0.7357500000000001 Q 1.641 0.681 1.6207500000000001 0.651 Q 1.6005 0.621 1.58775 0.6075 Q 1.5750000000000002 0.5940000000000001 1.557 0.5850000000000001 L 1.542 0.5775000000000001 L 1.542 0.5715000000000001 Q 1.6139999999999999 0.5670000000000001 1.66575 0.54 Q 1.7175 0.513 1.7505000000000002 0.47250000000000003 Q 1.7835 0.43200000000000005 1.7985 0.38475000000000004 Q 1.8135 0.3375 1.8135 0.2925000000000001 Q 1.8135 0.252 1.7977500000000002 0.20400000000000007 Q 1.782 0.15600000000000003 1.74375 0.11475000000000002 Q 1.7055 0.07350000000000001 1.6395 0.04574999999999996 Q 1.5735000000000001 0.018000000000000016 1.4729999999999999 0.018000000000000016 L 1.1325 0.018000000000000016 M 1.2690000000000001 0.08400000000000007 L 1.4205 0.08400000000000007 Q 1.4775 0.08400000000000007 1.52325 0.10050000000000003 Q 1.569 0.11699999999999999 1.6019999999999999 0.14625 Q 1.635 0.1755 1.65225 0.21600000000000008 Q 1.6695 0.25650000000000006 1.6695 0.3045 Q 1.6695 0.3450000000000001 1.65375 0.3862500000000001 Q 1.638 0.4275000000000001 1.6065 0.46125000000000005 Q 1.5750000000000002 0.495 1.52925 0.516 Q 1.4835 0.537 1.4235 0.537 L 1.2690000000000001 0.537 L 1.2690000000000001 0.08400000000000007 M 2.2245263671875004 0.018000000000000016 L 2.2245263671875004 1.068 L 2.9025263671875003 1.068 L 2.9025263671875003 0.9855 L 2.3610263671875003 0.9855 L 2.3610263671875003 0.546 L 2.8260263671875 0.546 L 2.8260263671875 0.4770000000000001 L 2.3610263671875003 0.4770000000000001 L 2.3610263671875003 0.10050000000000003 L 2.9025263671875003 0.10050000000000003 L 2.9025263671875003 0.018000000000000016 L 2.2245263671875004 0.018000000000000016 M 3.1425109863281255 0.018000000000000016 L 3.1425109863281255 1.068 L 3.8205109863281255 1.068 L 3.8205109863281255 0.9855 L 3.2790109863281254 0.9855 L 3.2790109863281254 0.546 L 3.7440109863281252 0.546 L 3.7440109863281252 0.4770000000000001 L 3.2790109863281254 0.4770000000000001 L 3.2790109863281254 0.10050000000000003 L 3.8205109863281255 0.10050000000000003 L 3.8205109863281255 0.018000000000000016 L 3.1425109863281255 0.018000000000000016 M 4.90649560546875 0.018000000000000016 L 4.90649560546875 0.8205 L 4.90049560546875 0.8205 L 4.0679956054687505 0 L 4.06049560546875 0 L 4.06049560546875 1.068 L 4.12949560546875 1.068 L 4.12949560546875 0.26550000000000007 L 4.13549560546875 0.26550000000000007 L 4.967995605468751 1.086 L 4.97549560546875 1.086 L 4.97549560546875 0.018000000000000016 L 4.90649560546875 0.018000000000000016 M 5.410458984375001 0.018000000000000016 L 5.410458984375001 1.068 L 5.546958984375001 1.068 L 5.546958984375001 0.018000000000000016 L 5.410458984375001 0.018000000000000016 M 5.846975097656252 0.018000000000000016 L 6.286475097656251 1.068 L 6.376475097656252 1.068 L 6.802475097656251 0.018000000000000016 L 6.724475097656252 0.018000000000000016 L 6.374975097656252 0.8820000000000001 L 6.368975097656252 0.8820000000000001 L 6.0089750976562515 0.018000000000000016 L 5.846975097656252 0.018000000000000016 M 7.490967041015626 0.7590000000000001 L 7.634967041015626 1.068 L 7.780467041015626 1.068 L 7.291467041015626 0.018000000000000016 L 7.216467041015626 0.018000000000000016 L 6.772467041015626 1.068 L 6.841467041015626 1.068 L 6.973467041015626 0.7590000000000001 L 7.490967041015626 0.7590000000000001 M 7.4594670410156265 0.6915 L 7.001967041015626 0.6915 L 7.217967041015626 0.18600000000000005 L 7.2239670410156265 0.18600000000000005 L 7.4594670410156265 0.6915 M 7.895958984375001 0.8025 Q 7.898958984375001 0.867 7.929708984375001 0.9195000000000001 Q 7.960458984375001 0.9720000000000001 8.013708984375 1.00875 Q 8.066958984375 1.0455 8.138958984375002 1.06575 Q 8.210958984375 1.086 8.296458984375 1.086 Q 8.383458984375 1.086 8.453208984375001 1.0650000000000002 Q 8.522958984375 1.044 8.572458984375 1.0050000000000001 Q 8.621958984375 0.9660000000000001 8.648958984375001 0.9105000000000001 Q 8.675958984375 0.8550000000000001 8.675958984375 0.7875000000000001 Q 8.675958984375 0.6945000000000001 8.629458984375 0.6352500000000001 Q 8.582958984375 0.5760000000000001 8.513208984375002 0.53625 Q 8.443458984375 0.49650000000000005 8.361708984375001 0.46950000000000003 Q 8.279958984375002 0.4425 8.210208984375 0.4125000000000001 Q 8.140458984375002 0.38250000000000006 8.093958984375002 0.3435 Q 8.047458984375002 0.3045 8.047458984375002 0.24 Q 8.047458984375002 0.20400000000000007 8.063208984375 0.1725 Q 8.078958984375001 0.14100000000000001 8.109708984375 0.11775000000000002 Q 8.140458984375002 0.09450000000000003 8.185458984375002 0.08025000000000004 Q 8.230458984375002 0.06600000000000006 8.288958984375 0.06600000000000006 Q 8.386458984375 0.06600000000000006 8.454708984375001 0.10725000000000007 Q 8.522958984375 0.14850000000000008 8.534958984375 0.237 L 8.636958984375001 0.237 Q 8.627958984375 0.1815 8.596458984375001 0.1372500000000001 Q 8.564958984375002 0.09300000000000008 8.516958984375002 0.06225000000000014 Q 8.468958984375002 0.031500000000000083 8.408208984375001 0.01574999999999993 Q 8.347458984375 0 8.281458984375002 0 Q 8.212458984375 0 8.150208984375 0.018000000000000016 Q 8.087958984375001 0.03600000000000003 8.040708984375001 0.07050000000000001 Q 7.993458984375001 0.1050000000000001 7.965708984375001 0.15750000000000008 Q 7.937958984375001 0.21000000000000008 7.937958984375001 0.2775000000000001 Q 7.937958984375001 0.366 7.982958984375001 0.42000000000000004 Q 8.027958984375001 0.4740000000000001 8.096208984375002 0.51 Q 8.164458984375 0.546 8.243958984375 0.5715000000000001 Q 8.323458984375002 0.597 8.391708984375 0.6292500000000001 Q 8.459958984375001 0.6615 8.504958984375001 0.7080000000000001 Q 8.549958984375001 0.7545000000000001 8.549958984375001 0.8325 Q 8.549958984375001 0.93 8.478708984375 0.9750000000000001 Q 8.407458984375001 1.02 8.288958984375 1.02 Q 8.194458984375 1.02 8.137458984375002 0.9952500000000001 Q 8.080458984375001 0.9705 8.050458984375002 0.936 Q 8.020458984375 0.9015000000000001 8.009958984375 0.86475 Q 7.999458984375001 0.8280000000000001 7.997958984375001 0.8025 L 7.895958984375001 0.8025" fill="#1c3423" fill-rule="nonzero"></path></g><g><path d=" M 1.1362624511718775 1.4344124999999996 L 1.1362624511718775 1.4779124999999997 L 0.9052624511718774 1.4779124999999997 L 0.9052624511718774 1.6736624999999998 L 1.1002624511718775 1.6736624999999998 L 1.1002624511718775 1.7171624999999997 L 0.9052624511718774 1.7171624999999997 L 0.9052624511718774 1.9586624999999998 L 0.8527624511718774 1.9586624999999998 L 0.8527624511718774 1.4344124999999996 L 1.1362624511718775 1.4344124999999996 M 1.508998168945315 1.9586624999999998 L 1.3792481689453149 1.7396624999999997 L 1.282498168945315 1.7396624999999997 L 1.282498168945315 1.9586624999999998 L 1.229998168945315 1.9586624999999998 L 1.229998168945315 1.4344124999999996 L 1.387498168945315 1.4344124999999996 Q 1.475248168945315 1.4344124999999996 1.520623168945315 1.4764124999999997 Q 1.565998168945315 1.5184124999999997 1.565998168945315 1.5866624999999996 Q 1.565998168945315 1.6436624999999998 1.533373168945315 1.6837874999999998 Q 1.5007481689453148 1.7239124999999997 1.436998168945315 1.7359124999999997 L 1.5719981689453149 1.9586624999999998 L 1.508998168945315 1.9586624999999998 M 1.282498168945315 1.6969124999999998 L 1.388248168945315 1.6969124999999998 Q 1.4497481689453149 1.6969124999999998 1.480873168945315 1.6669124999999998 Q 1.511998168945315 1.6369124999999998 1.511998168945315 1.5866624999999996 Q 1.511998168945315 1.5349124999999997 1.481998168945315 1.5067874999999997 Q 1.451998168945315 1.4786624999999998 1.387498168945315 1.4786624999999998 L 1.282498168945315 1.4786624999999998 L 1.282498168945315 1.6969124999999998 M 1.7812294921875025 1.9297874999999998 Q 1.7219794921875025 1.8956624999999998 1.6878544921875025 1.8345374999999997 Q 1.6537294921875025 1.7734124999999998 1.6537294921875025 1.6961624999999998 Q 1.6537294921875025 1.6189124999999998 1.6878544921875025 1.5577874999999999 Q 1.7219794921875025 1.4966624999999998 1.7812294921875025 1.4625374999999998 Q 1.8404794921875025 1.4284124999999999 1.9132294921875026 1.4284124999999999 Q 1.9867294921875025 1.4284124999999999 2.0459794921875023 1.4625374999999998 Q 2.1052294921875023 1.4966624999999998 2.1389794921875023 1.5577874999999999 Q 2.1727294921875027 1.6189124999999998 2.1727294921875027 1.6961624999999998 Q 2.1727294921875027 1.7734124999999998 2.1389794921875023 1.8345374999999997 Q 2.1052294921875023 1.8956624999999998 2.0459794921875023 1.9297874999999998 Q 1.9867294921875025 1.9639124999999997 1.9132294921875026 1.9639124999999997 Q 1.8404794921875025 1.9639124999999997 1.7812294921875025 1.9297874999999998 M 2.0182294921875026 1.8911624999999996 Q 2.0647294921875026 1.8641624999999997 2.0917294921875027 1.8135374999999998 Q 2.1187294921875024 1.7629124999999997 2.1187294921875024 1.6961624999999998 Q 2.1187294921875024 1.6294124999999997 2.0917294921875027 1.5791624999999998 Q 2.0647294921875026 1.5289124999999997 2.0182294921875026 1.5019124999999998 Q 1.9717294921875026 1.4749124999999998 1.9132294921875026 1.4749124999999998 Q 1.8547294921875026 1.4749124999999998 1.8082294921875026 1.5019124999999998 Q 1.7617294921875026 1.5289124999999997 1.7347294921875025 1.5791624999999998 Q 1.7077294921875026 1.6294124999999997 1.7077294921875026 1.6961624999999998 Q 1.7077294921875026 1.7629124999999997 1.7347294921875025 1.8135374999999998 Q 1.7617294921875026 1.8641624999999997 1.8082294921875026 1.8911624999999996 Q 1.8547294921875026 1.9181624999999998 1.9132294921875026 1.9181624999999998 Q 1.9717294921875026 1.9181624999999998 2.0182294921875026 1.8911624999999996 M 2.6714981689453148 1.9586624999999998 L 2.618998168945315 1.9586624999999998 L 2.3287481689453147 1.5176624999999997 L 2.3287481689453147 1.9586624999999998 L 2.276248168945315 1.9586624999999998 L 2.276248168945315 1.4344124999999996 L 2.3287481689453147 1.4344124999999996 L 2.618998168945315 1.8746624999999997 L 2.618998168945315 1.4344124999999996 L 2.6714981689453148 1.4344124999999996 L 2.6714981689453148 1.9586624999999998 M 3.1049787597656278 1.4344124999999996 L 3.1049787597656278 1.4779124999999997 L 2.9594787597656276 1.4779124999999997 L 2.9594787597656276 1.9586624999999998 L 2.906978759765628 1.9586624999999998 L 2.906978759765628 1.4779124999999997 L 2.7607287597656276 1.4779124999999997 L 2.7607287597656276 1.4344124999999996 L 3.1049787597656278 1.4344124999999996 M 3.2482434082031273 1.4771624999999997 L 3.2482434082031273 1.6729124999999998 L 3.4469934082031273 1.6729124999999998 L 3.4469934082031273 1.7164124999999997 L 3.2482434082031273 1.7164124999999997 L 3.2482434082031273 1.9151624999999997 L 3.4694934082031272 1.9151624999999997 L 3.4694934082031272 1.9586624999999998 L 3.1957434082031275 1.9586624999999998 L 3.1957434082031275 1.4336624999999996 L 3.4694934082031272 1.4336624999999996 L 3.4694934082031272 1.4771624999999997 L 3.2482434082031273 1.4771624999999997 M 3.9757364501953147 1.9586624999999998 L 3.923236450195315 1.9586624999999998 L 3.6329864501953146 1.5176624999999997 L 3.6329864501953146 1.9586624999999998 L 3.580486450195315 1.9586624999999998 L 3.580486450195315 1.4344124999999996 L 3.6329864501953146 1.4344124999999996 L 3.923236450195315 1.8746624999999997 L 3.923236450195315 1.4344124999999996 L 3.9757364501953147 1.4344124999999996 L 3.9757364501953147 1.9586624999999998 M 4.406967041015627 1.4659124999999997 Q 4.469217041015628 1.4974124999999998 4.502217041015627 1.5566624999999998 Q 4.535217041015628 1.6159124999999999 4.535217041015628 1.6976624999999999 Q 4.535217041015628 1.7786624999999998 4.502217041015627 1.8375374999999998 Q 4.469217041015628 1.8964124999999998 4.406967041015627 1.9275374999999997 Q 4.3447170410156275 1.9586624999999998 4.257717041015628 1.9586624999999998 L 4.102467041015627 1.9586624999999998 L 4.102467041015627 1.4344124999999996 L 4.257717041015628 1.4344124999999996 Q 4.3447170410156275 1.4344124999999996 4.406967041015627 1.4659124999999997 M 4.424592041015628 1.8577874999999997 Q 4.481967041015627 1.8004124999999997 4.481967041015627 1.6976624999999999 Q 4.481967041015627 1.5941624999999997 4.424592041015628 1.5360374999999997 Q 4.3672170410156275 1.4779124999999997 4.257717041015628 1.4779124999999997 L 4.154967041015627 1.4779124999999997 L 4.154967041015627 1.9151624999999997 L 4.257717041015628 1.9151624999999997 Q 4.3672170410156275 1.9151624999999997 4.424592041015628 1.8577874999999997 M 5.156952392578128 1.4659124999999997 Q 5.219202392578128 1.4974124999999998 5.252202392578128 1.5566624999999998 Q 5.285202392578128 1.6159124999999999 5.285202392578128 1.6976624999999999 Q 5.285202392578128 1.7786624999999998 5.252202392578128 1.8375374999999998 Q 5.219202392578128 1.8964124999999998 5.156952392578128 1.9275374999999997 Q 5.094702392578128 1.9586624999999998 5.007702392578128 1.9586624999999998 L 4.852452392578128 1.9586624999999998 L 4.852452392578128 1.4344124999999996 L 5.007702392578128 1.4344124999999996 Q 5.094702392578128 1.4344124999999996 5.156952392578128 1.4659124999999997 M 5.174577392578128 1.8577874999999997 Q 5.231952392578128 1.8004124999999997 5.231952392578128 1.6976624999999999 Q 5.231952392578128 1.5941624999999997 5.174577392578128 1.5360374999999997 Q 5.117202392578128 1.4779124999999997 5.007702392578128 1.4779124999999997 L 4.904952392578128 1.4779124999999997 L 4.904952392578128 1.9151624999999997 L 5.007702392578128 1.9151624999999997 Q 5.117202392578128 1.9151624999999997 5.174577392578128 1.8577874999999997 M 5.441947631835941 1.4771624999999997 L 5.441947631835941 1.6729124999999998 L 5.640697631835941 1.6729124999999998 L 5.640697631835941 1.7164124999999997 L 5.441947631835941 1.7164124999999997 L 5.441947631835941 1.9151624999999997 L 5.663197631835941 1.9151624999999997 L 5.663197631835941 1.9586624999999998 L 5.3894476318359406 1.9586624999999998 L 5.3894476318359406 1.4336624999999996 L 5.663197631835941 1.4336624999999996 L 5.663197631835941 1.4771624999999997 L 5.441947631835941 1.4771624999999997 M 6.189690673828129 1.4344124999999996 L 5.990940673828129 1.9586624999999998 L 5.930940673828129 1.9586624999999998 L 5.7321906738281285 1.4344124999999996 L 5.789190673828129 1.4344124999999996 L 5.960940673828128 1.9016624999999998 L 6.134190673828129 1.4344124999999996 L 6.189690673828129 1.4344124999999996 M 6.328438110351566 1.4771624999999997 L 6.328438110351566 1.6729124999999998 L 6.527188110351567 1.6729124999999998 L 6.527188110351567 1.7164124999999997 L 6.328438110351566 1.7164124999999997 L 6.328438110351566 1.9151624999999997 L 6.549688110351567 1.9151624999999997 L 6.549688110351567 1.9586624999999998 L 6.275938110351566 1.9586624999999998 L 6.275938110351566 1.4336624999999996 L 6.549688110351567 1.4336624999999996 L 6.549688110351567 1.4771624999999997 L 6.328438110351566 1.4771624999999997 M 6.713181152343754 1.9159124999999997 L 6.901431152343754 1.9159124999999997 L 6.901431152343754 1.9586624999999998 L 6.660681152343754 1.9586624999999998 L 6.660681152343754 1.4344124999999996 L 6.713181152343754 1.4344124999999996 L 6.713181152343754 1.9159124999999997 M 7.08744653320313 1.9297874999999998 Q 7.02819653320313 1.8956624999999998 6.99407153320313 1.8345374999999997 Q 6.959946533203129 1.7734124999999998 6.959946533203129 1.6961624999999998 Q 6.959946533203129 1.6189124999999998 6.99407153320313 1.5577874999999999 Q 7.02819653320313 1.4966624999999998 7.08744653320313 1.4625374999999998 Q 7.14669653320313 1.4284124999999999 7.219446533203129 1.4284124999999999 Q 7.292946533203129 1.4284124999999999 7.35219653320313 1.4625374999999998 Q 7.411446533203129 1.4966624999999998 7.44519653320313 1.5577874999999999 Q 7.478946533203129 1.6189124999999998 7.478946533203129 1.6961624999999998 Q 7.478946533203129 1.7734124999999998 7.44519653320313 1.8345374999999997 Q 7.411446533203129 1.8956624999999998 7.35219653320313 1.9297874999999998 Q 7.292946533203129 1.9639124999999997 7.219446533203129 1.9639124999999997 Q 7.14669653320313 1.9639124999999997 7.08744653320313 1.9297874999999998 M 7.32444653320313 1.8911624999999996 Q 7.37094653320313 1.8641624999999997 7.39794653320313 1.8135374999999998 Q 7.42494653320313 1.7629124999999997 7.42494653320313 1.6961624999999998 Q 7.42494653320313 1.6294124999999997 7.39794653320313 1.5791624999999998 Q 7.37094653320313 1.5289124999999997 7.32444653320313 1.5019124999999998 Q 7.27794653320313 1.4749124999999998 7.219446533203129 1.4749124999999998 Q 7.16094653320313 1.4749124999999998 7.11444653320313 1.5019124999999998 Q 7.06794653320313 1.5289124999999997 7.04094653320313 1.5791624999999998 Q 7.013946533203129 1.6294124999999997 7.013946533203129 1.6961624999999998 Q 7.013946533203129 1.7629124999999997 7.04094653320313 1.8135374999999998 Q 7.06794653320313 1.8641624999999997 7.11444653320313 1.8911624999999996 Q 7.16094653320313 1.9181624999999998 7.219446533203129 1.9181624999999998 Q 7.27794653320313 1.9181624999999998 7.32444653320313 1.8911624999999996 M 7.873465209960942 1.6939124999999997 Q 7.8292152099609424 1.7351624999999997 7.740715209960943 1.7351624999999997 L 7.634965209960942 1.7351624999999997 L 7.634965209960942 1.9586624999999998 L 7.582465209960942 1.9586624999999998 L 7.582465209960942 1.4344124999999996 L 7.740715209960943 1.4344124999999996 Q 7.828465209960942 1.4344124999999996 7.873090209960942 1.4756624999999999 Q 7.917715209960942 1.5169124999999997 7.917715209960942 1.5851624999999998 Q 7.917715209960942 1.6526624999999997 7.873465209960942 1.6939124999999997 M 7.863715209960942 1.5851624999999998 Q 7.863715209960942 1.5326624999999998 7.834465209960943 1.5056624999999997 Q 7.805215209960942 1.4786624999999998 7.740715209960943 1.4786624999999998 L 7.634965209960942 1.4786624999999998 L 7.634965209960942 1.6901624999999998 L 7.740715209960943 1.6901624999999998 Q 7.863715209960942 1.6901624999999998 7.863715209960942 1.5851624999999998 M 8.06548461914063 1.4771624999999997 L 8.06548461914063 1.6729124999999998 L 8.26423461914063 1.6729124999999998 L 8.26423461914063 1.7164124999999997 L 8.06548461914063 1.7164124999999997 L 8.06548461914063 1.9151624999999997 L 8.28673461914063 1.9151624999999997 L 8.28673461914063 1.9586624999999998 L 8.01298461914063 1.9586624999999998 L 8.01298461914063 1.4336624999999996 L 8.28673461914063 1.4336624999999996 L 8.28673461914063 1.4771624999999997 L 8.06548461914063 1.4771624999999997 M 8.676727661132817 1.9586624999999998 L 8.546977661132818 1.7396624999999997 L 8.450227661132818 1.7396624999999997 L 8.450227661132818 1.9586624999999998 L 8.397727661132818 1.9586624999999998 L 8.397727661132818 1.4344124999999996 L 8.555227661132816 1.4344124999999996 Q 8.642977661132818 1.4344124999999996 8.688352661132818 1.4764124999999997 Q 8.733727661132818 1.5184124999999997 8.733727661132818 1.5866624999999996 Q 8.733727661132818 1.6436624999999998 8.701102661132817 1.6837874999999998 Q 8.668477661132817 1.7239124999999997 8.604727661132817 1.7359124999999997 L 8.739727661132816 1.9586624999999998 L 8.676727661132817 1.9586624999999998 M 8.450227661132818 1.6969124999999998 L 8.555977661132816 1.6969124999999998 Q 8.617477661132817 1.6969124999999998 8.648602661132816 1.6669124999999998 Q 8.679727661132818 1.6369124999999998 8.679727661132818 1.5866624999999996 Q 8.679727661132818 1.5349124999999997 8.649727661132816 1.5067874999999997 Q 8.619727661132817 1.4786624999999998 8.555227661132816 1.4786624999999998 L 8.450227661132818 1.4786624999999998 L 8.450227661132818 1.6969124999999998" fill="#173f57" fill-rule="nonzero"></path></g><g clip-path="url(#SvgjsClipPath1001)"><g clip-path="url(#ac24ec0d1-f1bc-4476-b1b9-7124303bb308879ab2e4-fad3-4bc0-a49b-c7ee824568da)"><path d=" M 10.721653673115018 0.3357841809668531 C 10.859111397841016 0.3357841809668531 10.988324723915664 0.3881621634767143 11.08554120169289 0.4832332587052628 L 11.177884596252404 0.3929126534059293 C 11.051889344000774 0.26964510182333024 10.886786832718958 0.20801132603203076 10.721653673115018 0.20801132603203076 C 10.55652051351108 0.20801132603203076 10.391418002229264 0.2696451018233303 10.265422749977631 0.39291265340592935 L 10.357766144537147 0.4832332587052628 C 10.454982622314374 0.3881621634767143 10.584195948389022 0.3357841809668531 10.721653673115018 0.3357841809668531" fill="#c5d20b" transform="matrix(1,0,0,1,0,0)" fill-rule="nonzero"></path></g><g clip-path="url(#ac24ec0d1-f1bc-4476-b1b9-7124303bb308879ab2e4-fad3-4bc0-a49b-c7ee824568da)"><path d=" M 10.721653673115018 0.591942857278977 C 10.788445400961493 0.5916392893404026 10.852665772335799 0.6176710036629094 10.900394687741999 0.6643954907800372 L 10.992738082301514 0.5740442371585798 C 10.917894879674785 0.5007947472822963 10.81975895223384 0.46417000234415473 10.721653673115018 0.46417000234415473 C 10.623548393996197 0.46417000234415473 10.525412466555252 0.5007947472822963 10.450569263928521 0.5740442371585798 L 10.542912658488037 0.6643954907800372 C 10.590641573894239 0.6176710036629094 10.654861945268543 0.5916392893404026 10.721653673115018 0.591942857278977" fill="#c5d20b" transform="matrix(1,0,0,1,0,0)" fill-rule="nonzero"></path></g><g clip-path="url(#ac24ec0d1-f1bc-4476-b1b9-7124303bb308879ab2e4-fad3-4bc0-a49b-c7ee824568da)"><path d=" M 10.806426932109915 0.9222091764868555 C 10.75920044291392 0.968033776199105 10.684106903316117 0.968033776199105 10.636880414120123 0.9222091764868555 C 10.614447729400386 0.900448234339912 10.601787145400811 0.8705280398029213 10.601787145400811 0.8392748168193983 C 10.601787145400811 0.8080215938358755 10.614447729400386 0.7781013992988848 10.636880414120123 0.7563404571519411 C 10.684119922204449 0.7105479811046511 10.759187424025589 0.7105479811046511 10.806426932109915 0.7563404571519411 C 10.828859616829652 0.7781013992988847 10.841520200829226 0.8080215938358755 10.841520200829226 0.8392748168193983 C 10.841520200829226 0.8705280398029213 10.828859616829652 0.9004482343399118 10.806426932109915 0.9222091764868555" fill="#c5d20b" transform="matrix(1,0,0,1,0,0)" fill-rule="nonzero"></path></g><g clip-path="url(#ac24ec0d1-f1bc-4476-b1b9-7124303bb308879ab2e4-fad3-4bc0-a49b-c7ee824568da)"><path d=" M 10.721653673115018 0.07999328452021681 C 10.928958923961538 0.07999328452021681 11.123820956025726 0.1589740106336822 11.270411880744664 0.3023775098517281 L 11.36275527530418 0.21202625623027072 C 11.185730566716142 0.03883258790772788 10.95369211991558 -0.04777957041460549 10.721653673115018 -0.04777957041460549 C 10.489615226314458 -0.04777957041460549 10.257576779513895 0.03883258790772788 10.080552070925858 0.21202625623027072 L 10.172895465485373 0.3023775098517281 C 10.319486390204311 0.1589740106336822 10.5143484222685 0.07999328452021681 10.721653673115018 0.07999328452021681" fill="#c5d20b" transform="matrix(1,0,0,1,0,0)" fill-rule="nonzero"></path></g><g clip-path="url(#ac24ec0d1-f1bc-4476-b1b9-7124303bb308879ab2e4-fad3-4bc0-a49b-c7ee824568da)"><path d=" M 10.20878465069254 1.5985563491185797 L 9.85642089123328 1.5985563491185797 L 9.85642089123328 1.5983418108637122 L 9.725828390663052 1.5983418108637122 L 9.725828390663052 1.5985563491185797 C 9.495751436478425 1.5985563491185797 9.308551484945228 1.4154019761057475 9.308551484945228 1.190320698427327 C 9.308551484945228 0.9652087724267825 9.495751436478425 0.7820543994139502 9.725828390663052 0.7820543994139502 L 9.947814187806951 0.7820543994139502 C 9.95822837212732 0.6442208364994794 10.00692907286748 0.5120347366047057 10.088428689711717 0.400390844004177 L 9.994951307233615 0.30893625078625714 C 9.916910855873425 0.41088369289307036 9.862345033967378 0.5288061480594191 9.835150955679246 0.6542815444791285 L 9.725828390663052 0.6542815444791285 C 9.423237506333116 0.6542815444791279 9.177958984375001 0.8942579067097967 9.177958984375001 1.190320698427327 C 9.177958984375001 1.4863528418227334 9.423237506333116 1.7263292040534024 9.725828390663052 1.7263292040534024 L 10.321294641209626 1.7263292040534024 C 10.277953909786447 1.6892566505337543 10.240075327461861 1.6462395408330743 10.20878465069254 1.5985563491185806 M 11.71750960388911 0.6542815444791278 L 11.608187038872915 0.6542815444791278 C 11.580990583076671 0.5288125829382357 11.526436438238365 0.41089274713581303 11.44841733564067 0.30893625078625636 L 11.354909304840444 0.4003908440041773 C 11.43640892168468 0.512034736604706 11.48510962242484 0.6442208364994801 11.495523806745208 0.7820543994139503 L 11.71750960388911 0.7820543994139503 C 11.947586558073736 0.7820543994139499 12.134786509606933 0.9652087724267823 12.134786509606933 1.190320698427327 C 12.134786509606933 1.4154019761057475 11.947586558073736 1.5985563491185797 11.71750960388911 1.5985563491185797 L 11.71750960388911 1.5983418108637122 L 11.58691710331888 1.5983418108637122 L 11.58691710331888 1.5985563491185797 L 11.234553343859622 1.5985563491185797 C 11.20328256324648 1.64624551114323 11.165413157639048 1.689263917676577 11.122074001664659 1.7263292040534024 L 11.71750960388911 1.7263292040534024 C 12.020100488219043 1.726329204053402 12.26537901017716 1.486352841822733 12.26537901017716 1.190320698427327 C 12.26537901017716 0.8942579067097967 12.020100488219045 0.6542815444791278 11.71750960388911 0.6542815444791278" fill="#173f57" transform="matrix(1,0,0,1,0,0)" fill-rule="nonzero"></path></g><g clip-path="url(#ac24ec0d1-f1bc-4476-b1b9-7124303bb308879ab2e4-fad3-4bc0-a49b-c7ee824568da)"><path d=" M 11.234553343859622 1.5985563491185797 C 11.126211525151396 1.763904046977387 10.936866191069521 1.8737782817918123 10.721653673115018 1.8737782817918123 C 10.506441155160516 1.8737782817918123 10.317095821078642 1.763904046977387 10.20878465069254 1.5985563491185797 L 10.05315247094703 1.5985563491185797 C 10.17458112320219 1.8399425341669513 10.428594416965636 2.0064855165885933 10.721653673115018 2.0064855165885933 C 11.014743577586524 2.0064855165885933 11.26875687134997 1.8399425341669513 11.390154875283006 1.5985563491185797 Z" fill="#173f57" transform="matrix(1,0,0,1,0,0)" fill-rule="nonzero"></path></g></g></g><defs><clipPath id="SvgjsClipPath1001"><path d=" M 9.177958984375001 -0.047800030289534834 h 3.087427744371519 v 2.0542625605790694 h -3.087427744371519 Z"></path></clipPath><clipPath id="ac24ec0d1-f1bc-4476-b1b9-7124303bb308879ab2e4-fad3-4bc0-a49b-c7ee824568da"><path d=" M 9.177958984375001 2.0064855165885933 L 12.26537901017716 2.0064855165885933 L 12.26537901017716 -0.04777957041460568 L 9.177958984375001 -0.04777957041460568 Z"></path></clipPath></defs></svg>